<svg xmlns="http://www.w3.org/2000/svg" viewBox="0 0 360 900" role="img" aria-label="Refinery watermark">
  <defs>
    <linearGradient id="fade" x1="0" x2="0" y1="0" y2="1">
      <stop offset="0" stop-color="#7fa8bd" stop-opacity="0"/>
      <stop offset="0.24" stop-color="#7fa8bd" stop-opacity="0.72"/>
      <stop offset="1" stop-color="#7fa8bd" stop-opacity="1"/>
    </linearGradient>
    <linearGradient id="pipe" x1="0" x2="1" y1="0" y2="0">
      <stop offset="0" stop-color="#9fbfd0" stop-opacity="0.35"/>
      <stop offset="0.5" stop-color="#5f8aa0" stop-opacity="0.95"/>
      <stop offset="1" stop-color="#9fbfd0" stop-opacity="0.35"/>
    </linearGradient>
  </defs>
  <g fill="none" stroke="url(#fade)" stroke-linecap="round" stroke-linejoin="round">
    <path d="M208 26v236" stroke-width="5"/>
    <path d="M176 262h64M166 304h84M158 350h100M148 398h120M138 454h140M126 516h164M112 584h190" stroke-width="4"/>
    <path d="M188 26h40l-20 236z" stroke-width="4"/>
    <path d="M170 262c-18 42-28 112-30 214-1 56-12 132-35 228" stroke-width="5"/>
    <path d="M244 262c18 42 28 112 30 214 1 56 12 132 35 228" stroke-width="5"/>
    <path d="M113 690h198v124H113z" stroke-width="5"/>
    <path d="M138 690v124M174 690v124M212 690v124M250 690v124M286 690v124" stroke-width="3"/>
    <path d="M92 814h238" stroke-width="5"/>
    <path d="M34 824h296M20 858h322" stroke="url(#pipe)" stroke-width="9"/>
    <path d="M62 824c0-56 24-84 72-84M276 858c0-46-18-69-54-69" stroke="url(#pipe)" stroke-width="7"/>
    <path d="M52 610h52v204H52zM66 580h24v30" stroke-width="5"/>
    <path d="M258 548h58v266h-58zM272 516h30v32" stroke-width="5"/>
    <path d="M76 658h210M84 712h216M58 774h250" stroke-width="4"/>
    <path d="M208 88h-62M208 134h72M208 180h-92M208 226h78" stroke-width="4"/>
    <path d="M146 88l-34 24M280 134l34 24M116 180l-42 28M286 226l42 30" stroke-width="3"/>
  </g>
  <g fill="#6d9ab1" opacity="0.42">
    <circle cx="208" cy="26" r="7"/>
    <circle cx="52" cy="610" r="5"/>
    <circle cx="316" cy="548" r="5"/>
  </g>
</svg>
